<svg xmlns="http://www.w3.org/2000/svg" xmlns:xlink="http://www.w3.org/1999/xlink" width="1920" zoomAndPan="magnify" viewBox="0 0 1440 809.999993" height="1080" preserveAspectRatio="xMidYMid meet" version="1.0"><defs><g/></defs><g fill="#cccccc" fill-opacity="1"><g transform="translate(345.536253, 399.33835)"><g><path d="M 0 0 L 0 -253.125 L 56.25 -253.125 L 56.25 -168.75 L 112.5 -168.75 L 112.5 -253.125 L 168.75 -253.125 L 168.75 0 L 112.5 0 L 112.5 -140.625 L 56.25 -140.625 L 56.25 0 Z M 0 0 "/></g></g><g transform="translate(542.411244, 399.33835)"><g><path d="M 28.125 0 L 28.125 -28.125 L 0 -28.125 L 0 -253.125 L 56.25 -253.125 L 56.25 -28.125 L 112.5 -28.125 L 112.5 -253.125 L 168.75 -253.125 L 168.75 0 Z M 28.125 0 "/></g></g><g transform="translate(739.286234, 399.33835)"><g><path d="M 28.125 0 L 28.125 -28.125 L 0 -28.125 L 0 -225 L 28.125 -225 L 28.125 -253.125 L 140.625 -253.125 L 140.625 -225 L 168.75 -225 L 168.75 -196.875 L 112.5 -196.875 L 112.5 -225 L 56.25 -225 L 56.25 -28.125 L 112.5 -28.125 L 112.5 -112.5 L 84.375 -112.5 L 84.375 -140.625 L 168.75 -140.625 L 168.75 0 Z M 28.125 0 "/></g></g><g transform="translate(936.161224, 399.33835)"><g><path d="M 112.5 -28.125 L 112.5 -225 L 56.25 -225 L 56.25 -28.125 Z M 28.125 0 L 28.125 -28.125 L 0 -28.125 L 0 -225 L 28.125 -225 L 28.125 -253.125 L 140.625 -253.125 L 140.625 -225 L 168.75 -225 L 168.75 -28.125 L 140.625 -28.125 L 140.625 0 Z M 28.125 0 "/></g></g></g><g fill="#ffffff" fill-opacity="1"><g transform="translate(326.24999, 387.75)"><g><path d="M 0 0 L 0 -253.125 L 56.25 -253.125 L 56.25 -168.75 L 112.5 -168.75 L 112.5 -253.125 L 168.75 -253.125 L 168.75 0 L 112.5 0 L 112.5 -140.625 L 56.25 -140.625 L 56.25 0 Z M 0 0 "/></g></g><g transform="translate(523.12498, 387.75)"><g><path d="M 28.125 0 L 28.125 -28.125 L 0 -28.125 L 0 -253.125 L 56.25 -253.125 L 56.25 -28.125 L 112.5 -28.125 L 112.5 -253.125 L 168.75 -253.125 L 168.75 0 Z M 28.125 0 "/></g></g><g transform="translate(719.99997, 387.75)"><g><path d="M 28.125 0 L 28.125 -28.125 L 0 -28.125 L 0 -225 L 28.125 -225 L 28.125 -253.125 L 140.625 -253.125 L 140.625 -225 L 168.75 -225 L 168.75 -196.875 L 112.5 -196.875 L 112.5 -225 L 56.25 -225 L 56.25 -28.125 L 112.5 -28.125 L 112.5 -112.5 L 84.375 -112.5 L 84.375 -140.625 L 168.75 -140.625 L 168.75 0 Z M 28.125 0 "/></g></g><g transform="translate(916.87496, 387.75)"><g><path d="M 112.5 -28.125 L 112.5 -225 L 56.25 -225 L 56.25 -28.125 Z M 28.125 0 L 28.125 -28.125 L 0 -28.125 L 0 -225 L 28.125 -225 L 28.125 -253.125 L 140.625 -253.125 L 140.625 -225 L 168.75 -225 L 168.75 -28.125 L 140.625 -28.125 L 140.625 0 Z M 28.125 0 "/></g></g></g><g fill="#cccccc" fill-opacity="1"><g transform="translate(50.223768, 687.338335)"><g><path d="M 112.5 -28.125 L 112.5 -225 L 56.25 -225 L 56.25 -28.125 Z M 0 0 L 0 -253.125 L 140.625 -253.125 L 140.625 -225 L 168.75 -225 L 168.75 -28.125 L 140.625 -28.125 L 140.625 0 Z M 0 0 "/></g></g><g transform="translate(247.098758, 687.338335)"><g><path d="M 0 0 L 0 -253.125 L 168.75 -253.125 L 168.75 -225 L 56.25 -225 L 56.25 -140.625 L 140.625 -140.625 L 140.625 -112.5 L 56.25 -112.5 L 56.25 -28.125 L 168.75 -28.125 L 168.75 0 Z M 0 0 "/></g></g><g transform="translate(443.973749, 687.338335)"><g><path d="M 0 0 L 0 -253.125 L 168.75 -253.125 L 168.75 -225 L 56.25 -225 L 56.25 -140.625 L 140.625 -140.625 L 140.625 -112.5 L 56.25 -112.5 L 56.25 0 Z M 0 0 "/></g></g><g transform="translate(640.848739, 687.338335)"><g><path d="M 112.5 -112.5 L 112.5 -225 L 56.25 -225 L 56.25 -112.5 Z M 0 0 L 0 -225 L 28.125 -225 L 28.125 -253.125 L 140.625 -253.125 L 140.625 -225 L 168.75 -225 L 168.75 0 L 112.5 0 L 112.5 -84.375 L 56.25 -84.375 L 56.25 0 Z M 0 0 "/></g></g><g transform="translate(837.723729, 687.338335)"><g><path d="M 0 0 L 0 -253.125 L 56.25 -253.125 L 56.25 -225 L 84.375 -225 L 84.375 -140.625 L 56.25 -140.625 L 56.25 0 Z M 112.5 0 L 112.5 -56.25 L 84.375 -56.25 L 84.375 -140.625 L 112.5 -140.625 L 112.5 -253.125 L 168.75 -253.125 L 168.75 0 Z M 112.5 0 "/></g></g><g transform="translate(1034.598719, 687.338335)"><g><path d="M 56.25 0 L 56.25 -225 L 0 -225 L 0 -253.125 L 168.75 -253.125 L 168.75 -225 L 112.5 -225 L 112.5 0 Z M 56.25 0 "/></g></g><g transform="translate(1231.473709, 687.338335)"><g><path d="M 0 0 L 0 -253.125 L 168.75 -253.125 L 168.75 -225 L 56.25 -225 L 56.25 -140.625 L 140.625 -140.625 L 140.625 -112.5 L 56.25 -112.5 L 56.25 -28.125 L 168.75 -28.125 L 168.75 0 Z M 0 0 "/></g></g></g><g fill="#ffffff" fill-opacity="1"><g transform="translate(30.937505, 675.749986)"><g><path d="M 112.5 -28.125 L 112.5 -225 L 56.25 -225 L 56.25 -28.125 Z M 0 0 L 0 -253.125 L 140.625 -253.125 L 140.625 -225 L 168.75 -225 L 168.75 -28.125 L 140.625 -28.125 L 140.625 0 Z M 0 0 "/></g></g><g transform="translate(227.812495, 675.749986)"><g><path d="M 0 0 L 0 -253.125 L 168.75 -253.125 L 168.75 -225 L 56.25 -225 L 56.25 -140.625 L 140.625 -140.625 L 140.625 -112.5 L 56.25 -112.5 L 56.25 -28.125 L 168.75 -28.125 L 168.75 0 Z M 0 0 "/></g></g><g transform="translate(424.687485, 675.749986)"><g><path d="M 0 0 L 0 -253.125 L 168.75 -253.125 L 168.75 -225 L 56.25 -225 L 56.25 -140.625 L 140.625 -140.625 L 140.625 -112.5 L 56.25 -112.5 L 56.25 0 Z M 0 0 "/></g></g><g transform="translate(621.562475, 675.749986)"><g><path d="M 112.5 -112.5 L 112.5 -225 L 56.25 -225 L 56.25 -112.5 Z M 0 0 L 0 -225 L 28.125 -225 L 28.125 -253.125 L 140.625 -253.125 L 140.625 -225 L 168.75 -225 L 168.75 0 L 112.5 0 L 112.5 -84.375 L 56.25 -84.375 L 56.25 0 Z M 0 0 "/></g></g><g transform="translate(818.437465, 675.749986)"><g><path d="M 0 0 L 0 -253.125 L 56.25 -253.125 L 56.25 -225 L 84.375 -225 L 84.375 -140.625 L 56.25 -140.625 L 56.25 0 Z M 112.5 0 L 112.5 -56.25 L 84.375 -56.25 L 84.375 -140.625 L 112.5 -140.625 L 112.5 -253.125 L 168.75 -253.125 L 168.75 0 Z M 112.5 0 "/></g></g><g transform="translate(1015.312455, 675.749986)"><g><path d="M 56.25 0 L 56.25 -225 L 0 -225 L 0 -253.125 L 168.75 -253.125 L 168.75 -225 L 112.5 -225 L 112.5 0 Z M 56.25 0 "/></g></g><g transform="translate(1212.187445, 675.749986)"><g><path d="M 0 0 L 0 -253.125 L 168.75 -253.125 L 168.75 -225 L 56.25 -225 L 56.25 -140.625 L 140.625 -140.625 L 140.625 -112.5 L 56.25 -112.5 L 56.25 -28.125 L 168.75 -28.125 L 168.75 0 Z M 0 0 "/></g></g></g></svg>