<svg xmlns="http://www.w3.org/2000/svg" xmlns:xlink="http://www.w3.org/1999/xlink" width="1554" zoomAndPan="magnify" viewBox="0 0 1165.5 656.249984" height="875" preserveAspectRatio="xMidYMid meet" version="1.0"><defs><g/></defs><g fill="#ff00ff" fill-opacity="1"><g transform="translate(303.989561, 306.20608)"><g><path d="M 0 0 L 0 -148.8125 L 33.078125 -148.8125 L 33.078125 -99.21875 L 66.140625 -99.21875 L 66.140625 -148.8125 L 99.21875 -148.8125 L 99.21875 0 L 66.140625 0 L 66.140625 -82.671875 L 33.078125 -82.671875 L 33.078125 0 Z M 0 0 "/></g></g></g><g fill="#ff00ff" fill-opacity="1"><g transform="translate(448.045292, 306.20608)"><g><path d="M 16.53125 0 L 16.53125 -16.53125 L 0 -16.53125 L 0 -148.8125 L 33.078125 -148.8125 L 33.078125 -16.53125 L 66.140625 -16.53125 L 66.140625 -148.8125 L 99.21875 -148.8125 L 99.21875 0 Z M 16.53125 0 "/></g></g></g><g fill="#ff00ff" fill-opacity="1"><g transform="translate(592.101023, 306.20608)"><g><path d="M 16.53125 0 L 16.53125 -16.53125 L 0 -16.53125 L 0 -132.28125 L 16.53125 -132.28125 L 16.53125 -148.8125 L 82.671875 -148.8125 L 82.671875 -132.28125 L 99.21875 -132.28125 L 99.21875 -115.75 L 66.140625 -115.75 L 66.140625 -132.28125 L 33.078125 -132.28125 L 33.078125 -16.53125 L 66.140625 -16.53125 L 66.140625 -66.140625 L 49.609375 -66.140625 L 49.609375 -82.671875 L 99.21875 -82.671875 L 99.21875 0 Z M 16.53125 0 "/></g></g></g><g fill="#ff00ff" fill-opacity="1"><g transform="translate(736.156755, 306.20608)"><g><path d="M 66.140625 -16.53125 L 66.140625 -132.28125 L 33.078125 -132.28125 L 33.078125 -16.53125 Z M 16.53125 0 L 16.53125 -16.53125 L 0 -16.53125 L 0 -132.28125 L 16.53125 -132.28125 L 16.53125 -148.8125 L 82.671875 -148.8125 L 82.671875 -132.28125 L 99.21875 -132.28125 L 99.21875 -16.53125 L 82.671875 -16.53125 L 82.671875 0 Z M 16.53125 0 "/></g></g></g><g fill="#00ffff" fill-opacity="1"><g transform="translate(313.572852, 308.773917)"><g><path d="M 0 0 L 0 -148.8125 L 33.078125 -148.8125 L 33.078125 -99.21875 L 66.140625 -99.21875 L 66.140625 -148.8125 L 99.21875 -148.8125 L 99.21875 0 L 66.140625 0 L 66.140625 -82.671875 L 33.078125 -82.671875 L 33.078125 0 Z M 0 0 "/></g></g></g><g fill="#00ffff" fill-opacity="1"><g transform="translate(457.628584, 308.773917)"><g><path d="M 16.53125 0 L 16.53125 -16.53125 L 0 -16.53125 L 0 -148.8125 L 33.078125 -148.8125 L 33.078125 -16.53125 L 66.140625 -16.53125 L 66.140625 -148.8125 L 99.21875 -148.8125 L 99.21875 0 Z M 16.53125 0 "/></g></g></g><g fill="#00ffff" fill-opacity="1"><g transform="translate(601.684315, 308.773917)"><g><path d="M 16.53125 0 L 16.53125 -16.53125 L 0 -16.53125 L 0 -132.28125 L 16.53125 -132.28125 L 16.53125 -148.8125 L 82.671875 -148.8125 L 82.671875 -132.28125 L 99.21875 -132.28125 L 99.21875 -115.75 L 66.140625 -115.75 L 66.140625 -132.28125 L 33.078125 -132.28125 L 33.078125 -16.53125 L 66.140625 -16.53125 L 66.140625 -66.140625 L 49.609375 -66.140625 L 49.609375 -82.671875 L 99.21875 -82.671875 L 99.21875 0 Z M 16.53125 0 "/></g></g></g><g fill="#00ffff" fill-opacity="1"><g transform="translate(745.740046, 308.773917)"><g><path d="M 66.140625 -16.53125 L 66.140625 -132.28125 L 33.078125 -132.28125 L 33.078125 -16.53125 Z M 16.53125 0 L 16.53125 -16.53125 L 0 -16.53125 L 0 -132.28125 L 16.53125 -132.28125 L 16.53125 -148.8125 L 82.671875 -148.8125 L 82.671875 -132.28125 L 99.21875 -132.28125 L 99.21875 -16.53125 L 82.671875 -16.53125 L 82.671875 0 Z M 16.53125 0 "/></g></g></g><g fill="#ffffff" fill-opacity="1"><g transform="translate(308.781206, 307.489997)"><g><path d="M 0 0 L 0 -148.8125 L 33.078125 -148.8125 L 33.078125 -99.21875 L 66.140625 -99.21875 L 66.140625 -148.8125 L 99.21875 -148.8125 L 99.21875 0 L 66.140625 0 L 66.140625 -82.671875 L 33.078125 -82.671875 L 33.078125 0 Z M 0 0 "/></g></g></g><g fill="#ffffff" fill-opacity="1"><g transform="translate(452.836938, 307.489997)"><g><path d="M 16.53125 0 L 16.53125 -16.53125 L 0 -16.53125 L 0 -148.8125 L 33.078125 -148.8125 L 33.078125 -16.53125 L 66.140625 -16.53125 L 66.140625 -148.8125 L 99.21875 -148.8125 L 99.21875 0 Z M 16.53125 0 "/></g></g></g><g fill="#ffffff" fill-opacity="1"><g transform="translate(596.892669, 307.489997)"><g><path d="M 16.53125 0 L 16.53125 -16.53125 L 0 -16.53125 L 0 -132.28125 L 16.53125 -132.28125 L 16.53125 -148.8125 L 82.671875 -148.8125 L 82.671875 -132.28125 L 99.21875 -132.28125 L 99.21875 -115.75 L 66.140625 -115.75 L 66.140625 -132.28125 L 33.078125 -132.28125 L 33.078125 -16.53125 L 66.140625 -16.53125 L 66.140625 -66.140625 L 49.609375 -66.140625 L 49.609375 -82.671875 L 99.21875 -82.671875 L 99.21875 0 Z M 16.53125 0 "/></g></g></g><g fill="#ffffff" fill-opacity="1"><g transform="translate(740.9484, 307.489997)"><g><path d="M 66.140625 -16.53125 L 66.140625 -132.28125 L 33.078125 -132.28125 L 33.078125 -16.53125 Z M 16.53125 0 L 16.53125 -16.53125 L 0 -16.53125 L 0 -132.28125 L 16.53125 -132.28125 L 16.53125 -148.8125 L 82.671875 -148.8125 L 82.671875 -132.28125 L 99.21875 -132.28125 L 99.21875 -16.53125 L 82.671875 -16.53125 L 82.671875 0 Z M 16.53125 0 "/></g></g></g><g fill="#ff00ff" fill-opacity="1"><g transform="translate(87.90625, 494.852484)"><g><path d="M 66.140625 -16.53125 L 66.140625 -132.28125 L 33.078125 -132.28125 L 33.078125 -16.53125 Z M 0 0 L 0 -148.8125 L 82.671875 -148.8125 L 82.671875 -132.28125 L 99.21875 -132.28125 L 99.21875 -16.53125 L 82.671875 -16.53125 L 82.671875 0 Z M 0 0 "/></g></g></g><g fill="#ff00ff" fill-opacity="1"><g transform="translate(231.961982, 494.852484)"><g><path d="M 0 0 L 0 -148.8125 L 99.21875 -148.8125 L 99.21875 -132.28125 L 33.078125 -132.28125 L 33.078125 -82.671875 L 82.671875 -82.671875 L 82.671875 -66.140625 L 33.078125 -66.140625 L 33.078125 -16.53125 L 99.21875 -16.53125 L 99.21875 0 Z M 0 0 "/></g></g></g><g fill="#ff00ff" fill-opacity="1"><g transform="translate(376.017713, 494.852484)"><g><path d="M 0 0 L 0 -148.8125 L 99.21875 -148.8125 L 99.21875 -132.28125 L 33.078125 -132.28125 L 33.078125 -82.671875 L 82.671875 -82.671875 L 82.671875 -66.140625 L 33.078125 -66.140625 L 33.078125 0 Z M 0 0 "/></g></g></g><g fill="#ff00ff" fill-opacity="1"><g transform="translate(520.073444, 494.852484)"><g><path d="M 66.140625 -66.140625 L 66.140625 -132.28125 L 33.078125 -132.28125 L 33.078125 -66.140625 Z M 0 0 L 0 -132.28125 L 16.53125 -132.28125 L 16.53125 -148.8125 L 82.671875 -148.8125 L 82.671875 -132.28125 L 99.21875 -132.28125 L 99.21875 0 L 66.140625 0 L 66.140625 -49.609375 L 33.078125 -49.609375 L 33.078125 0 Z M 0 0 "/></g></g></g><g fill="#ff00ff" fill-opacity="1"><g transform="translate(664.129176, 494.852484)"><g><path d="M 0 0 L 0 -148.8125 L 33.078125 -148.8125 L 33.078125 -132.28125 L 49.609375 -132.28125 L 49.609375 -82.671875 L 33.078125 -82.671875 L 33.078125 0 Z M 66.140625 0 L 66.140625 -33.078125 L 49.609375 -33.078125 L 49.609375 -82.671875 L 66.140625 -82.671875 L 66.140625 -148.8125 L 99.21875 -148.8125 L 99.21875 0 Z M 66.140625 0 "/></g></g></g><g fill="#ff00ff" fill-opacity="1"><g transform="translate(808.184907, 494.852484)"><g><path d="M 33.078125 0 L 33.078125 -132.28125 L 0 -132.28125 L 0 -148.8125 L 99.21875 -148.8125 L 99.21875 -132.28125 L 66.140625 -132.28125 L 66.140625 0 Z M 33.078125 0 "/></g></g></g><g fill="#ff00ff" fill-opacity="1"><g transform="translate(952.240638, 494.852484)"><g><path d="M 0 0 L 0 -148.8125 L 99.21875 -148.8125 L 99.21875 -132.28125 L 33.078125 -132.28125 L 33.078125 -82.671875 L 82.671875 -82.671875 L 82.671875 -66.140625 L 33.078125 -66.140625 L 33.078125 -16.53125 L 99.21875 -16.53125 L 99.21875 0 Z M 0 0 "/></g></g></g><g fill="#00ffff" fill-opacity="1"><g transform="translate(97.489542, 497.420292)"><g><path d="M 66.140625 -16.53125 L 66.140625 -132.28125 L 33.078125 -132.28125 L 33.078125 -16.53125 Z M 0 0 L 0 -148.8125 L 82.671875 -148.8125 L 82.671875 -132.28125 L 99.21875 -132.28125 L 99.21875 -16.53125 L 82.671875 -16.53125 L 82.671875 0 Z M 0 0 "/></g></g></g><g fill="#00ffff" fill-opacity="1"><g transform="translate(241.545273, 497.420292)"><g><path d="M 0 0 L 0 -148.8125 L 99.21875 -148.8125 L 99.21875 -132.28125 L 33.078125 -132.28125 L 33.078125 -82.671875 L 82.671875 -82.671875 L 82.671875 -66.140625 L 33.078125 -66.140625 L 33.078125 -16.53125 L 99.21875 -16.53125 L 99.21875 0 Z M 0 0 "/></g></g></g><g fill="#00ffff" fill-opacity="1"><g transform="translate(385.601005, 497.420292)"><g><path d="M 0 0 L 0 -148.8125 L 99.21875 -148.8125 L 99.21875 -132.28125 L 33.078125 -132.28125 L 33.078125 -82.671875 L 82.671875 -82.671875 L 82.671875 -66.140625 L 33.078125 -66.140625 L 33.078125 0 Z M 0 0 "/></g></g></g><g fill="#00ffff" fill-opacity="1"><g transform="translate(529.656736, 497.420292)"><g><path d="M 66.140625 -66.140625 L 66.140625 -132.28125 L 33.078125 -132.28125 L 33.078125 -66.140625 Z M 0 0 L 0 -132.28125 L 16.53125 -132.28125 L 16.53125 -148.8125 L 82.671875 -148.8125 L 82.671875 -132.28125 L 99.21875 -132.28125 L 99.21875 0 L 66.140625 0 L 66.140625 -49.609375 L 33.078125 -49.609375 L 33.078125 0 Z M 0 0 "/></g></g></g><g fill="#00ffff" fill-opacity="1"><g transform="translate(673.712467, 497.420292)"><g><path d="M 0 0 L 0 -148.8125 L 33.078125 -148.8125 L 33.078125 -132.28125 L 49.609375 -132.28125 L 49.609375 -82.671875 L 33.078125 -82.671875 L 33.078125 0 Z M 66.140625 0 L 66.140625 -33.078125 L 49.609375 -33.078125 L 49.609375 -82.671875 L 66.140625 -82.671875 L 66.140625 -148.8125 L 99.21875 -148.8125 L 99.21875 0 Z M 66.140625 0 "/></g></g></g><g fill="#00ffff" fill-opacity="1"><g transform="translate(817.768199, 497.420292)"><g><path d="M 33.078125 0 L 33.078125 -132.28125 L 0 -132.28125 L 0 -148.8125 L 99.21875 -148.8125 L 99.21875 -132.28125 L 66.140625 -132.28125 L 66.140625 0 Z M 33.078125 0 "/></g></g></g><g fill="#00ffff" fill-opacity="1"><g transform="translate(961.82393, 497.420292)"><g><path d="M 0 0 L 0 -148.8125 L 99.21875 -148.8125 L 99.21875 -132.28125 L 33.078125 -132.28125 L 33.078125 -82.671875 L 82.671875 -82.671875 L 82.671875 -66.140625 L 33.078125 -66.140625 L 33.078125 -16.53125 L 99.21875 -16.53125 L 99.21875 0 Z M 0 0 "/></g></g></g><g fill="#ffffff" fill-opacity="1"><g transform="translate(92.697896, 496.136387)"><g><path d="M 66.140625 -16.53125 L 66.140625 -132.28125 L 33.078125 -132.28125 L 33.078125 -16.53125 Z M 0 0 L 0 -148.8125 L 82.671875 -148.8125 L 82.671875 -132.28125 L 99.21875 -132.28125 L 99.21875 -16.53125 L 82.671875 -16.53125 L 82.671875 0 Z M 0 0 "/></g></g></g><g fill="#ffffff" fill-opacity="1"><g transform="translate(236.753628, 496.136387)"><g><path d="M 0 0 L 0 -148.8125 L 99.21875 -148.8125 L 99.21875 -132.28125 L 33.078125 -132.28125 L 33.078125 -82.671875 L 82.671875 -82.671875 L 82.671875 -66.140625 L 33.078125 -66.140625 L 33.078125 -16.53125 L 99.21875 -16.53125 L 99.21875 0 Z M 0 0 "/></g></g></g><g fill="#ffffff" fill-opacity="1"><g transform="translate(380.809359, 496.136387)"><g><path d="M 0 0 L 0 -148.8125 L 99.21875 -148.8125 L 99.21875 -132.28125 L 33.078125 -132.28125 L 33.078125 -82.671875 L 82.671875 -82.671875 L 82.671875 -66.140625 L 33.078125 -66.140625 L 33.078125 0 Z M 0 0 "/></g></g></g><g fill="#ffffff" fill-opacity="1"><g transform="translate(524.86509, 496.136387)"><g><path d="M 66.140625 -66.140625 L 66.140625 -132.28125 L 33.078125 -132.28125 L 33.078125 -66.140625 Z M 0 0 L 0 -132.28125 L 16.53125 -132.28125 L 16.53125 -148.8125 L 82.671875 -148.8125 L 82.671875 -132.28125 L 99.21875 -132.28125 L 99.21875 0 L 66.140625 0 L 66.140625 -49.609375 L 33.078125 -49.609375 L 33.078125 0 Z M 0 0 "/></g></g></g><g fill="#ffffff" fill-opacity="1"><g transform="translate(668.920822, 496.136387)"><g><path d="M 0 0 L 0 -148.8125 L 33.078125 -148.8125 L 33.078125 -132.28125 L 49.609375 -132.28125 L 49.609375 -82.671875 L 33.078125 -82.671875 L 33.078125 0 Z M 66.140625 0 L 66.140625 -33.078125 L 49.609375 -33.078125 L 49.609375 -82.671875 L 66.140625 -82.671875 L 66.140625 -148.8125 L 99.21875 -148.8125 L 99.21875 0 Z M 66.140625 0 "/></g></g></g><g fill="#ffffff" fill-opacity="1"><g transform="translate(812.976553, 496.136387)"><g><path d="M 33.078125 0 L 33.078125 -132.28125 L 0 -132.28125 L 0 -148.8125 L 99.21875 -148.8125 L 99.21875 -132.28125 L 66.140625 -132.28125 L 66.140625 0 Z M 33.078125 0 "/></g></g></g><g fill="#ffffff" fill-opacity="1"><g transform="translate(957.032284, 496.136387)"><g><path d="M 0 0 L 0 -148.8125 L 99.21875 -148.8125 L 99.21875 -132.28125 L 33.078125 -132.28125 L 33.078125 -82.671875 L 82.671875 -82.671875 L 82.671875 -66.140625 L 33.078125 -66.140625 L 33.078125 -16.53125 L 99.21875 -16.53125 L 99.21875 0 Z M 0 0 "/></g></g></g></svg>